<svg xmlns="http://www.w3.org/2000/svg" viewBox="0 0 400 400" fill="none" stroke="#C8A04A" stroke-width="1.1">
  <g>
    <circle cx="200" cy="200" r="192"/>
    <circle cx="200" cy="200" r="170"/>
    <circle cx="200" cy="200" r="128"/>
    <circle cx="200" cy="200" r="74"/>
    <circle cx="200" cy="200" r="34"/>
  </g>
  <!-- outer petals -->
  <g>
    <g transform="rotate(0 200 200)"><ellipse cx="200" cy="92" rx="17" ry="48"/></g>
    <g transform="rotate(30 200 200)"><ellipse cx="200" cy="92" rx="17" ry="48"/></g>
    <g transform="rotate(60 200 200)"><ellipse cx="200" cy="92" rx="17" ry="48"/></g>
    <g transform="rotate(90 200 200)"><ellipse cx="200" cy="92" rx="17" ry="48"/></g>
    <g transform="rotate(120 200 200)"><ellipse cx="200" cy="92" rx="17" ry="48"/></g>
    <g transform="rotate(150 200 200)"><ellipse cx="200" cy="92" rx="17" ry="48"/></g>
    <g transform="rotate(180 200 200)"><ellipse cx="200" cy="92" rx="17" ry="48"/></g>
    <g transform="rotate(210 200 200)"><ellipse cx="200" cy="92" rx="17" ry="48"/></g>
    <g transform="rotate(240 200 200)"><ellipse cx="200" cy="92" rx="17" ry="48"/></g>
    <g transform="rotate(270 200 200)"><ellipse cx="200" cy="92" rx="17" ry="48"/></g>
    <g transform="rotate(300 200 200)"><ellipse cx="200" cy="92" rx="17" ry="48"/></g>
    <g transform="rotate(330 200 200)"><ellipse cx="200" cy="92" rx="17" ry="48"/></g>
  </g>
  <!-- inner lotus -->
  <g>
    <g transform="rotate(0 200 200)"><path d="M200 166 C214 184 214 216 200 234 C186 216 186 184 200 166 Z"/></g>
    <g transform="rotate(45 200 200)"><path d="M200 166 C214 184 214 216 200 234 C186 216 186 184 200 166 Z"/></g>
    <g transform="rotate(90 200 200)"><path d="M200 166 C214 184 214 216 200 234 C186 216 186 184 200 166 Z"/></g>
    <g transform="rotate(135 200 200)"><path d="M200 166 C214 184 214 216 200 234 C186 216 186 184 200 166 Z"/></g>
  </g>
  <!-- ring of dots -->
  <g fill="#C8A04A" stroke="none">
    <g transform="rotate(0 200 200)"><circle cx="200" cy="30" r="2.6"/></g>
    <g transform="rotate(20 200 200)"><circle cx="200" cy="30" r="2.6"/></g>
    <g transform="rotate(40 200 200)"><circle cx="200" cy="30" r="2.6"/></g>
    <g transform="rotate(60 200 200)"><circle cx="200" cy="30" r="2.6"/></g>
    <g transform="rotate(80 200 200)"><circle cx="200" cy="30" r="2.6"/></g>
    <g transform="rotate(100 200 200)"><circle cx="200" cy="30" r="2.6"/></g>
    <g transform="rotate(120 200 200)"><circle cx="200" cy="30" r="2.6"/></g>
    <g transform="rotate(140 200 200)"><circle cx="200" cy="30" r="2.6"/></g>
    <g transform="rotate(160 200 200)"><circle cx="200" cy="30" r="2.6"/></g>
    <g transform="rotate(180 200 200)"><circle cx="200" cy="30" r="2.6"/></g>
    <g transform="rotate(200 200 200)"><circle cx="200" cy="30" r="2.6"/></g>
    <g transform="rotate(220 200 200)"><circle cx="200" cy="30" r="2.6"/></g>
    <g transform="rotate(240 200 200)"><circle cx="200" cy="30" r="2.6"/></g>
    <g transform="rotate(260 200 200)"><circle cx="200" cy="30" r="2.6"/></g>
    <g transform="rotate(280 200 200)"><circle cx="200" cy="30" r="2.6"/></g>
    <g transform="rotate(300 200 200)"><circle cx="200" cy="30" r="2.6"/></g>
    <g transform="rotate(320 200 200)"><circle cx="200" cy="30" r="2.6"/></g>
    <g transform="rotate(340 200 200)"><circle cx="200" cy="30" r="2.6"/></g>
  </g>
</svg>
